<?xml version="1.0" encoding="UTF-8" standalone="no"?>
<!-- Created with Digital by H.Neemann -->
<!-- created: Sun Jan 01 12:54:27 CET 2023 -->

<svg
   xmlns:svg="http://www.w3.org/2000/svg"
   xmlns="http://www.w3.org/2000/svg"
   width="208.35mm"
   height="118.95mm"
   viewBox="217 29 1389 793">
<g stroke-linecap="square">
<path d="M 280,320 L 400,320 L 400,180 L 460,180" stroke="#0000b2" stroke-width="4.0" fill="none"/>
<path d="M 860,720 L 980,720 L 980,780" stroke="#0000b2" stroke-width="4.0" fill="none"/>
<path d="M 780,660 L 780,720 L 840,720" stroke="#0000b2" stroke-width="4.0" fill="none"/>
<path d="M 1160,340 L 1160,720 L 1240,720" stroke="#0000b2" stroke-width="4.0" fill="none"/>
<path d="M 1260,720 L 1340,720 L 1340,780" stroke="#0000b2" stroke-width="4.0" fill="none"/>
<path d="M 860,580 L 900,580 L 900,340 L 900,220 L 860,220" stroke="#0000b2" stroke-width="4.0" fill="none"/>
<path d="M 860,180 L 980,180 L 980,80" stroke="#0000b2" stroke-width="4.0" fill="none"/>
<path d="M 1240,180 L 1360,180 L 1360,80" stroke="#0000b2" stroke-width="4.0" fill="none"/>
<path d="M 480,180 L 600,180 L 600,80" stroke="#0000b2" stroke-width="4.0" fill="none"/>
<path d="M 280,660 L 780,660 L 780,180 L 840,180" stroke="#0000b2" stroke-width="4.0" fill="none"/>
<path d="M 860,680 L 900,680 L 900,620 L 860,620" stroke="#0000b2" stroke-width="4.0" fill="none"/>
<path d="M 1260,680 L 1300,680 L 1300,460" stroke="#0000b2" stroke-width="4.0" fill="none"/>
<path d="M 400,320 L 400,620 L 840,620" stroke="#0000b2" stroke-width="4.0" fill="none"/>
<path d="M 1240,220 L 1300,220 L 1300,460 L 1540,460" stroke="#0000b2" stroke-width="4.0" fill="none"/>
<path d="M 480,220 L 540,220 L 540,340 L 900,340 L 1160,340 L 1160,180 L 1220,180" stroke="#0000b2" stroke-width="4.0" fill="none"/>
<path d="M 848,595 L 848,605" stroke="#000000" stroke-width="4.0" fill="none"/>
<path d="M 841,580 L 841,620" stroke="#000000" stroke-width="4.0" fill="none"/>
<path d="M 848,195 L 848,205" stroke="#000000" stroke-width="4.0" fill="none"/>
<path d="M 841,180 L 841,220" stroke="#000000" stroke-width="4.0" fill="none"/>
<path d="M 1228,195 L 1228,205" stroke="#000000" stroke-width="4.0" fill="none"/>
<path d="M 1221,180 L 1221,220" stroke="#000000" stroke-width="4.0" fill="none"/>
<path d="M 468,195 L 468,205" stroke="#000000" stroke-width="4.0" fill="none"/>
<path d="M 461,180 L 461,220" stroke="#000000" stroke-width="4.0" fill="none"/>
<path d="M 848,695 L 848,705" stroke="#000000" stroke-width="4.0" fill="none"/>
<path d="M 841,680 L 841,720" stroke="#000000" stroke-width="4.0" fill="none"/>
<path d="M 1248,695 L 1248,705" stroke="#000000" stroke-width="4.0" fill="none"/>
<path d="M 1241,680 L 1241,720" stroke="#000000" stroke-width="4.0" fill="none"/>
<path d="M 600,54 L 600,34" stroke="#000000" stroke-width="4.0" fill="none"/>
<path d="M 980,54 L 980,34" stroke="#000000" stroke-width="4.0" fill="none"/>
<path d="M 1360,54 L 1360,34" stroke="#000000" stroke-width="4.0" fill="none"/>
<path d="M 980,806 L 980,820" stroke="#000000" stroke-width="4.0" fill="none"/>
<path d="M 1340,806 L 1340,820" stroke="#000000" stroke-width="4.0" fill="none"/>
<path d="M 970,820 L 990,820" stroke="#000000" stroke-width="6.0" fill="none"/>
<path d="M 1330,820 L 1350,820" stroke="#000000" stroke-width="6.0" fill="none"/>
<path d="M 855,600 L 860,600" stroke="#000000" stroke-width="2.0" fill="none"/>
<path d="M 848,200 L 854,200" stroke="#000000" stroke-width="2.0" fill="none"/>
<path d="M 1228,200 L 1234,200" stroke="#000000" stroke-width="2.0" fill="none"/>
<path d="M 468,200 L 474,200" stroke="#000000" stroke-width="2.0" fill="none"/>
<path d="M 855,700 L 860,700" stroke="#000000" stroke-width="2.0" fill="none"/>
<path d="M 1255,700 L 1260,700" stroke="#000000" stroke-width="2.0" fill="none"/>
<g>
<circle cx="400.0" cy="320.0" r="4.0" stroke="#0000b2" stroke-width="4.0" fill="#0000b2" />
<circle cx="900.0" cy="340.0" r="4.0" stroke="#0000b2" stroke-width="4.0" fill="#0000b2" />
<circle cx="1160.0" cy="340.0" r="4.0" stroke="#0000b2" stroke-width="4.0" fill="#0000b2" />
<circle cx="780.0" cy="660.0" r="4.0" stroke="#0000b2" stroke-width="4.0" fill="#0000b2" />
<circle cx="1300.0" cy="460.0" r="4.0" stroke="#0000b2" stroke-width="4.0" fill="#0000b2" />
</g>
<g>
<path d="M 860,580 L 848,580 L 848,585" stroke="#000000" stroke-width="4.0" fill="none"/>
<path d="M 860,620 L 848,620 L 848,615" stroke="#000000" stroke-width="4.0" fill="none"/>
<text text-anchor="start" x="870.0" y="620.0" fill="#808080" style="font-size:18px">T3</text>
<path d="M 852,600 L 857,598 L 857,602 Z" stroke="#000000" stroke-width="2.0" fill="#000000" fill-opacity="1.0"/>
<circle cx="840.0" cy="620.0" r="2.0" stroke="#0000b2" stroke-width="4.0" fill="#0000b2" />
<circle cx="860.0" cy="580.0" r="2.0" stroke="#b20000" stroke-width="4.0" fill="#b20000" />
<circle cx="860.0" cy="620.0" r="2.0" stroke="#b20000" stroke-width="4.0" fill="#b20000" />
</g>
<g>
<path d="M 860,180 L 848,180 L 848,185" stroke="#000000" stroke-width="4.0" fill="none"/>
<path d="M 860,220 L 848,220 L 848,215" stroke="#000000" stroke-width="4.0" fill="none"/>
<text text-anchor="start" x="870.0" y="220.0" fill="#808080" style="font-size:18px">T2</text>
<path d="M 859,200 L 854,198 L 854,202 Z" stroke="#000000" stroke-width="2.0" fill="#000000" fill-opacity="1.0"/>
<circle cx="840.0" cy="180.0" r="2.0" stroke="#0000b2" stroke-width="4.0" fill="#0000b2" />
<circle cx="860.0" cy="180.0" r="2.0" stroke="#b20000" stroke-width="4.0" fill="#b20000" />
<circle cx="860.0" cy="220.0" r="2.0" stroke="#b20000" stroke-width="4.0" fill="#b20000" />
</g>
<g>
<path d="M 1240,180 L 1228,180 L 1228,185" stroke="#000000" stroke-width="4.0" fill="none"/>
<path d="M 1240,220 L 1228,220 L 1228,215" stroke="#000000" stroke-width="4.0" fill="none"/>
<text text-anchor="start" x="1250.0" y="220.0" fill="#808080" style="font-size:18px">T5</text>
<path d="M 1239,200 L 1234,198 L 1234,202 Z" stroke="#000000" stroke-width="2.0" fill="#000000" fill-opacity="1.0"/>
<circle cx="1220.0" cy="180.0" r="2.0" stroke="#0000b2" stroke-width="4.0" fill="#0000b2" />
<circle cx="1240.0" cy="180.0" r="2.0" stroke="#b20000" stroke-width="4.0" fill="#b20000" />
<circle cx="1240.0" cy="220.0" r="2.0" stroke="#b20000" stroke-width="4.0" fill="#b20000" />
</g>
<g>
<circle cx="1556.0" cy="460.0" r="9.0" stroke="#000000" stroke-width="4.0" fill="none" />
<circle cx="1556.0" cy="460.0" r="15.0" stroke="#000000" stroke-width="4.0" fill="none" />
<text text-anchor="start" x="1585.0" y="469.0" fill="#000000" style="font-size:24px"><tspan style="font-style:italic;">O</tspan></text>
<circle cx="1540.0" cy="460.0" r="2.0" stroke="#0000b2" stroke-width="4.0" fill="#0000b2" />
</g>
<g>
<path d="M 480,180 L 468,180 L 468,185" stroke="#000000" stroke-width="4.0" fill="none"/>
<path d="M 480,220 L 468,220 L 468,215" stroke="#000000" stroke-width="4.0" fill="none"/>
<text text-anchor="start" x="490.0" y="220.0" fill="#808080" style="font-size:18px">T1</text>
<path d="M 479,200 L 474,198 L 474,202 Z" stroke="#000000" stroke-width="2.0" fill="#000000" fill-opacity="1.0"/>
<circle cx="460.0" cy="180.0" r="2.0" stroke="#0000b2" stroke-width="4.0" fill="#0000b2" />
<circle cx="480.0" cy="180.0" r="2.0" stroke="#b20000" stroke-width="4.0" fill="#b20000" />
<circle cx="480.0" cy="220.0" r="2.0" stroke="#b20000" stroke-width="4.0" fill="#b20000" />
</g>
<g>
<path d="M 249,305 L 279,305 L 279,335 L 249,335 Z" stroke="#000000" stroke-width="4.0" fill="none"/>
<circle cx="264.0" cy="320.0" r="9.0" stroke="#000000" stroke-width="4.0" fill="none" />
<text text-anchor="end" x="235.0" y="329.0" fill="#000000" style="font-size:24px"><tspan style="font-style:italic;">A</tspan></text>
<circle cx="280.0" cy="320.0" r="2.0" stroke="#b20000" stroke-width="4.0" fill="#b20000" />
</g>
<g>
<path d="M 860,680 L 848,680 L 848,685" stroke="#000000" stroke-width="4.0" fill="none"/>
<path d="M 860,720 L 848,720 L 848,715" stroke="#000000" stroke-width="4.0" fill="none"/>
<text text-anchor="start" x="870.0" y="720.0" fill="#808080" style="font-size:18px">T4</text>
<path d="M 852,700 L 857,698 L 857,702 Z" stroke="#000000" stroke-width="2.0" fill="#000000" fill-opacity="1.0"/>
<circle cx="840.0" cy="720.0" r="2.0" stroke="#0000b2" stroke-width="4.0" fill="#0000b2" />
<circle cx="860.0" cy="680.0" r="2.0" stroke="#b20000" stroke-width="4.0" fill="#b20000" />
<circle cx="860.0" cy="720.0" r="2.0" stroke="#b20000" stroke-width="4.0" fill="#b20000" />
</g>
<g>
<path d="M 249,645 L 279,645 L 279,675 L 249,675 Z" stroke="#000000" stroke-width="4.0" fill="none"/>
<circle cx="264.0" cy="660.0" r="9.0" stroke="#000000" stroke-width="4.0" fill="none" />
<text text-anchor="end" x="235.0" y="669.0" fill="#000000" style="font-size:24px"><tspan style="font-style:italic;">B</tspan></text>
<circle cx="280.0" cy="660.0" r="2.0" stroke="#b20000" stroke-width="4.0" fill="#b20000" />
</g>
<g>
<path d="M 1260,680 L 1248,680 L 1248,685" stroke="#000000" stroke-width="4.0" fill="none"/>
<path d="M 1260,720 L 1248,720 L 1248,715" stroke="#000000" stroke-width="4.0" fill="none"/>
<text text-anchor="start" x="1270.0" y="720.0" fill="#808080" style="font-size:18px">T6</text>
<path d="M 1252,700 L 1257,698 L 1257,702 Z" stroke="#000000" stroke-width="2.0" fill="#000000" fill-opacity="1.0"/>
<circle cx="1240.0" cy="720.0" r="2.0" stroke="#0000b2" stroke-width="4.0" fill="#0000b2" />
<circle cx="1260.0" cy="680.0" r="2.0" stroke="#b20000" stroke-width="4.0" fill="#b20000" />
<circle cx="1260.0" cy="720.0" r="2.0" stroke="#b20000" stroke-width="4.0" fill="#b20000" />
</g>
<g>
<path d="M 593,79 L 593,54 L 607,54 L 607,79 Z" stroke="#000000" stroke-width="4.0" fill="none"/>
<path d="M 590,44 L 600,31 L 610,44" stroke="#000000" stroke-width="4.0" fill="none"/>
<circle cx="600.0" cy="80.0" r="2.0" stroke="#b20000" stroke-width="4.0" fill="#b20000" />
</g>
<g>
<path d="M 973,79 L 973,54 L 987,54 L 987,79 Z" stroke="#000000" stroke-width="4.0" fill="none"/>
<path d="M 970,44 L 980,31 L 990,44" stroke="#000000" stroke-width="4.0" fill="none"/>
<circle cx="980.0" cy="80.0" r="2.0" stroke="#b20000" stroke-width="4.0" fill="#b20000" />
</g>
<g>
<path d="M 1353,79 L 1353,54 L 1367,54 L 1367,79 Z" stroke="#000000" stroke-width="4.0" fill="none"/>
<path d="M 1350,44 L 1360,31 L 1370,44" stroke="#000000" stroke-width="4.0" fill="none"/>
<circle cx="1360.0" cy="80.0" r="2.0" stroke="#b20000" stroke-width="4.0" fill="#b20000" />
</g>
<g>
<path d="M 973,781 L 973,806 L 987,806 L 987,781 Z" stroke="#000000" stroke-width="4.0" fill="none"/>
<circle cx="980.0" cy="780.0" r="2.0" stroke="#b20000" stroke-width="4.0" fill="#b20000" />
</g>
<g>
<path d="M 1333,781 L 1333,806 L 1347,806 L 1347,781 Z" stroke="#000000" stroke-width="4.0" fill="none"/>
<circle cx="1340.0" cy="780.0" r="2.0" stroke="#b20000" stroke-width="4.0" fill="#b20000" />
</g>
</g>
</svg>